<svg xmlns="http://www.w3.org/2000/svg" width="24" height="24" viewBox="0 0 24 24" fill="none">
  <path d="M12 3C7.03 3 3 7.03 3 12s4.03 9 9 9 9-4.03 9-9-4.03-9-9-9z" fill="#14b8a6" opacity="0.15"/>
  <path d="M12 3C7.03 3 3 7.03 3 12s4.03 9 9 9 9-4.03 9-9-4.03-9-9-9z" stroke="#14b8a6" stroke-width="1.5"/>
  <path d="M12 8v4l2.5 2.5" stroke="#14b8a6" stroke-width="1.5" stroke-linecap="round" stroke-linejoin="round"/>
  <path d="M17.5 4.5l1.5-1.5M6.5 4.5L5 3M17.5 19.5l1.5 1.5M6.5 19.5L5 21" stroke="#14b8a6" stroke-width="1" stroke-linecap="round" opacity="0.4"/>
</svg>